<?xml version="1.0" encoding="UTF-8" ?>
<!DOCTYPE svg PUBLIC "-//W3C//DTD SVG 1.1//EN" "http://www.w3.org/Graphics/SVG/1.1/DTD/svg11.dtd">
<svg width="138pt" height="116pt" viewBox="0 0 138 116" version="1.1" xmlns="http://www.w3.org/2000/svg">
<g id="#ffffffff">
<path fill="#ffffff" opacity="1.00" d=" M 7.29 37.27 C 19.88 21.08 39.23 11.02 59.22 7.44 C 90.06 4.10 123.63 19.25 138.00 47.51 L 138.00 57.81 C 124.49 49.87 110.56 42.04 95.06 38.79 C 77.08 33.60 57.77 34.43 39.95 39.85 C 25.74 43.10 13.43 51.24 0.54 57.65 C 0.95 50.36 2.58 43.05 7.29 37.27 Z" />
<path fill="#ffffff" opacity="1.00" d=" M 3.15 61.20 C 12.13 53.31 23.19 47.86 34.54 44.27 C 34.40 53.46 33.62 62.88 36.21 71.83 C 39.56 81.26 47.65 88.62 56.86 92.18 C 71.05 96.78 88.75 93.42 97.71 80.71 C 106.58 70.65 104.44 56.42 104.47 44.04 C 116.65 47.97 127.68 54.72 138.00 62.18 L 138.00 69.39 C 126.74 92.32 102.57 106.05 77.97 109.70 C 50.36 112.05 21.11 99.84 5.21 76.76 C 2.43 72.42 -1.39 65.85 3.15 61.20 Z" />
<path fill="#ffffff" opacity="1.00" d=" M 66.44 49.45 C 70.57 47.78 74.59 49.84 77.83 52.18 C 79.76 57.05 80.54 65.23 74.04 67.08 C 69.80 69.61 64.70 67.53 61.17 64.82 C 58.45 59.47 59.23 50.39 66.44 49.45 Z" />
</g>
<g id="#ff9933ff">
<path fill="#ff9933" opacity="1.00" d=" M 57.46 38.72 C 70.61 37.37 84.34 37.70 96.92 42.15 C 101.61 43.62 101.40 49.79 102.42 53.60 C 105.93 71.09 91.95 89.42 74.41 91.42 C 60.73 94.13 46.53 86.03 39.72 74.32 C 35.44 64.74 34.44 52.95 39.59 43.52 C 44.83 40.28 51.47 39.87 57.46 38.72 M 68.33 46.41 C 59.84 46.43 55.10 56.26 58.38 63.60 C 61.60 73.30 78.35 72.77 80.93 62.89 C 83.86 54.80 77.81 44.70 68.33 46.41 Z" />
</g>
</svg>
